# xmcd CD database file
#
# Track frame offsets:
#	150
#	21428
#	50532
#	69633
#	89913
#	116393
#	141719
#	150430
#	178078
#	199674
#	226688
#	244609
#	261022
#	282460
#
# Disc length: 4049 seconds
#
# Revision: 0
# Processed by: cddbd v1.5PL3 Copyright (c) Steve Scherf et al.
# Submitted via: CDex 1.60beta1
#
DISCID=cc0fcf0e
DTITLE=Paris Washboard - Caravan
DYEAR=2001
DGENRE=Jazz
TTITLE0=All God's Chillun Got Rhythm
TTITLE1=The Mooche
TTITLE2=Frolic Sam 
TTITLE3=Drop Me off in Harlem
TTITLE4=It Don't Mean a Thing (If It Ain't Got That Swing)
TTITLE5=Solitude 
TTITLE6=Dancers in Love
TTITLE7=Pelican Drag
TTITLE8=Rose of the Rio Grande
TTITLE9=Caravan
TTITLE10=I Got It Bad (And That Ain't Good) 
TTITLE11=Squaty Roo
TTITLE12=Mood Indigo
TTITLE13=Ring Dem Bells
EXTD=YEAR: 2001
EXTT0=
EXTT1=
EXTT2=
EXTT3=
EXTT4=
EXTT5=
EXTT6=
EXTT7=
EXTT8=
EXTT9=
EXTT10=
EXTT11=
EXTT12=
EXTT13=
PLAYORDER=
